<svg width="577" height="245" viewBox="0 0 577 245" fill="none" xmlns="http://www.w3.org/2000/svg">
<g filter="url(#filter0_d_246_28)">
<rect x="4" width="569" height="237" rx="36" fill="white"/>
</g>
<g filter="url(#filter1_i_246_28)">
<path d="M231.405 91.315C231.405 86.895 232.423 82.93 234.46 79.42C236.54 75.91 239.335 73.18 242.845 71.23C246.398 69.2367 250.277 68.24 254.48 68.24C259.29 68.24 263.558 69.4317 267.285 71.815C271.055 74.155 273.785 77.4917 275.475 81.825H266.57C265.4 79.4417 263.775 77.665 261.695 76.495C259.615 75.325 257.21 74.74 254.48 74.74C251.49 74.74 248.825 75.4117 246.485 76.755C244.145 78.0983 242.303 80.0267 240.96 82.54C239.66 85.0533 239.01 87.9783 239.01 91.315C239.01 94.6517 239.66 97.5767 240.96 100.09C242.303 102.603 244.145 104.553 246.485 105.94C248.825 107.283 251.49 107.955 254.48 107.955C257.21 107.955 259.615 107.37 261.695 106.2C263.775 105.03 265.4 103.253 266.57 100.87H275.475C273.785 105.203 271.055 108.54 267.285 110.88C263.558 113.22 259.29 114.39 254.48 114.39C250.233 114.39 246.355 113.415 242.845 111.465C239.335 109.472 236.54 106.72 234.46 103.21C232.423 99.7 231.405 95.735 231.405 91.315ZM307.613 114L297.213 95.93H291.558V114H284.148V68.825H299.748C303.215 68.825 306.14 69.4317 308.523 70.645C310.95 71.8583 312.748 73.4833 313.918 75.52C315.132 77.5567 315.738 79.8317 315.738 82.345C315.738 85.2917 314.872 87.9783 313.138 90.405C311.448 92.7883 308.827 94.4133 305.273 95.28L316.453 114H307.613ZM291.558 90.015H299.748C302.522 90.015 304.602 89.3217 305.988 87.935C307.418 86.5483 308.133 84.685 308.133 82.345C308.133 80.005 307.44 78.185 306.053 76.885C304.667 75.5417 302.565 74.87 299.748 74.87H291.558V90.015ZM345.823 114.455C341.619 114.455 337.741 113.48 334.188 111.53C330.678 109.537 327.883 106.785 325.803 103.275C323.766 99.7217 322.748 95.735 322.748 91.315C322.748 86.895 323.766 82.93 325.803 79.42C327.883 75.91 330.678 73.18 334.188 71.23C337.741 69.2367 341.619 68.24 345.823 68.24C350.069 68.24 353.948 69.2367 357.458 71.23C361.011 73.18 363.806 75.91 365.843 79.42C367.879 82.93 368.898 86.895 368.898 91.315C368.898 95.735 367.879 99.7217 365.843 103.275C363.806 106.785 361.011 109.537 357.458 111.53C353.948 113.48 350.069 114.455 345.823 114.455ZM345.823 108.02C348.813 108.02 351.478 107.348 353.818 106.005C356.158 104.618 357.978 102.668 359.278 100.155C360.621 97.5983 361.293 94.6517 361.293 91.315C361.293 87.9783 360.621 85.0533 359.278 82.54C357.978 80.0267 356.158 78.0983 353.818 76.755C351.478 75.4117 348.813 74.74 345.823 74.74C342.833 74.74 340.168 75.4117 337.828 76.755C335.488 78.0983 333.646 80.0267 332.303 82.54C331.003 85.0533 330.353 87.9783 330.353 91.315C330.353 94.6517 331.003 97.5983 332.303 100.155C333.646 102.668 335.488 104.618 337.828 106.005C340.168 107.348 342.833 108.02 345.823 108.02ZM435.014 68.825L421.624 114H413.239L403.749 79.81L393.674 114L385.354 114.065L372.549 68.825H380.414L389.774 105.615L399.914 68.825H408.234L417.659 105.42L427.084 68.825H435.014ZM478.241 114H470.831L448.536 80.265V114H441.126V68.76H448.536L470.831 102.43V68.76H478.241V114ZM495.382 74.805V88.065H510.982V94.11H495.382V107.955H512.932V114H487.972V68.76H512.932V74.805H495.382ZM536.814 68.825C541.624 68.825 545.827 69.7567 549.424 71.62C553.064 73.44 555.859 76.0833 557.809 79.55C559.802 82.9733 560.799 86.9817 560.799 91.575C560.799 96.1683 559.802 100.155 557.809 103.535C555.859 106.915 553.064 109.515 549.424 111.335C545.827 113.112 541.624 114 536.814 114H522.059V68.825H536.814ZM536.814 107.955C542.1 107.955 546.152 106.525 548.969 103.665C551.785 100.805 553.194 96.775 553.194 91.575C553.194 86.3317 551.785 82.2367 548.969 79.29C546.152 76.3433 542.1 74.87 536.814 74.87H529.469V107.955H536.814Z" fill="black"/>
</g>
<g filter="url(#filter2_di_246_28)">
<circle cx="115" cy="118" r="103" fill="white"/>
</g>
<g filter="url(#filter3_ii_246_28)">
<path d="M66.88 127.541L44 104.59L118.36 30L187 101.721L152.68 136.148L118.36 170.574L92.62 144.754L135.52 101.721L118.36 84.5082L71.17 131.844L72.6 133.279L115.5 90.2459L129.077 101.721L86.9 144.754L118.36 176.311L169.84 124.672L187 139.016L184.14 141.885L118.36 205L58.3 144.754L71.17 131.844L66.88 127.541Z" fill="url(#paint0_linear_246_28)"/>
</g>
<path d="M231.405 163.315C231.405 158.895 232.423 154.93 234.46 151.42C236.54 147.91 239.335 145.18 242.845 143.23C246.398 141.237 250.277 140.24 254.48 140.24C259.29 140.24 263.558 141.432 267.285 143.815C271.055 146.155 273.785 149.492 275.475 153.825H266.57C265.4 151.442 263.775 149.665 261.695 148.495C259.615 147.325 257.21 146.74 254.48 146.74C251.49 146.74 248.825 147.412 246.485 148.755C244.145 150.098 242.303 152.027 240.96 154.54C239.66 157.053 239.01 159.978 239.01 163.315C239.01 166.652 239.66 169.577 240.96 172.09C242.303 174.603 244.145 176.553 246.485 177.94C248.825 179.283 251.49 179.955 254.48 179.955C257.21 179.955 259.615 179.37 261.695 178.2C263.775 177.03 265.4 175.253 266.57 172.87H275.475C273.785 177.203 271.055 180.54 267.285 182.88C263.558 185.22 259.29 186.39 254.48 186.39C250.233 186.39 246.355 185.415 242.845 183.465C239.335 181.472 236.54 178.72 234.46 175.21C232.423 171.7 231.405 167.735 231.405 163.315ZM304.753 186.455C300.55 186.455 296.672 185.48 293.118 183.53C289.608 181.537 286.813 178.785 284.733 175.275C282.697 171.722 281.678 167.735 281.678 163.315C281.678 158.895 282.697 154.93 284.733 151.42C286.813 147.91 289.608 145.18 293.118 143.23C296.672 141.237 300.55 140.24 304.753 140.24C309 140.24 312.878 141.237 316.388 143.23C319.942 145.18 322.737 147.91 324.773 151.42C326.81 154.93 327.828 158.895 327.828 163.315C327.828 167.735 326.81 171.722 324.773 175.275C322.737 178.785 319.942 181.537 316.388 183.53C312.878 185.48 309 186.455 304.753 186.455ZM304.753 180.02C307.743 180.02 310.408 179.348 312.748 178.005C315.088 176.618 316.908 174.668 318.208 172.155C319.552 169.598 320.223 166.652 320.223 163.315C320.223 159.978 319.552 157.053 318.208 154.54C316.908 152.027 315.088 150.098 312.748 148.755C310.408 147.412 307.743 146.74 304.753 146.74C301.763 146.74 299.098 147.412 296.758 148.755C294.418 150.098 292.577 152.027 291.233 154.54C289.933 157.053 289.283 159.978 289.283 163.315C289.283 166.652 289.933 169.598 291.233 172.155C292.577 174.668 294.418 176.618 296.758 178.005C299.098 179.348 301.763 180.02 304.753 180.02ZM372.235 186H364.825L342.53 152.265V186H335.12V140.76H342.53L364.825 174.43V140.76H372.235V186ZM379.496 163.315C379.496 158.895 380.514 154.93 382.551 151.42C384.631 147.91 387.426 145.18 390.936 143.23C394.489 141.237 398.367 140.24 402.571 140.24C407.381 140.24 411.649 141.432 415.376 143.815C419.146 146.155 421.876 149.492 423.566 153.825H414.661C413.491 151.442 411.866 149.665 409.786 148.495C407.706 147.325 405.301 146.74 402.571 146.74C399.581 146.74 396.916 147.412 394.576 148.755C392.236 150.098 390.394 152.027 389.051 154.54C387.751 157.053 387.101 159.978 387.101 163.315C387.101 166.652 387.751 169.577 389.051 172.09C390.394 174.603 392.236 176.553 394.576 177.94C396.916 179.283 399.581 179.955 402.571 179.955C405.301 179.955 407.706 179.37 409.786 178.2C411.866 177.03 413.491 175.253 414.661 172.87H423.566C421.876 177.203 419.146 180.54 415.376 182.88C411.649 185.22 407.381 186.39 402.571 186.39C398.324 186.39 394.446 185.415 390.936 183.465C387.426 181.472 384.631 178.72 382.551 175.21C380.514 171.7 379.496 167.735 379.496 163.315ZM439.649 146.805V160.065H455.249V166.11H439.649V179.955H457.199V186H432.239V140.76H457.199V146.805H439.649ZM497.916 154.28C497.916 156.577 497.375 158.743 496.291 160.78C495.208 162.817 493.475 164.485 491.091 165.785C488.708 167.042 485.653 167.67 481.926 167.67H473.736V186H466.326V140.825H481.926C485.393 140.825 488.318 141.432 490.701 142.645C493.128 143.815 494.926 145.418 496.096 147.455C497.31 149.492 497.916 151.767 497.916 154.28ZM481.926 161.625C484.743 161.625 486.845 160.997 488.231 159.74C489.618 158.44 490.311 156.62 490.311 154.28C490.311 149.34 487.516 146.87 481.926 146.87H473.736V161.625H481.926ZM534.168 140.825V146.87H522.143V186H514.733V146.87H502.643V140.825H534.168Z" fill="black"/>
<defs>
<filter id="filter0_d_246_28" x="0" y="0" width="577" height="245" filterUnits="userSpaceOnUse" color-interpolation-filters="sRGB">
<feFlood flood-opacity="0" result="BackgroundImageFix"/>
<feColorMatrix in="SourceAlpha" type="matrix" values="0 0 0 0 0 0 0 0 0 0 0 0 0 0 0 0 0 0 127 0" result="hardAlpha"/>
<feOffset dy="4"/>
<feGaussianBlur stdDeviation="2"/>
<feComposite in2="hardAlpha" operator="out"/>
<feColorMatrix type="matrix" values="0 0 0 0 0 0 0 0 0 0 0 0 0 0 0 0 0 0 0.25 0"/>
<feBlend mode="normal" in2="BackgroundImageFix" result="effect1_dropShadow_246_28"/>
<feBlend mode="normal" in="SourceGraphic" in2="effect1_dropShadow_246_28" result="shape"/>
</filter>
<filter id="filter1_i_246_28" x="231.405" y="68.2402" width="329.394" height="50.2148" filterUnits="userSpaceOnUse" color-interpolation-filters="sRGB">
<feFlood flood-opacity="0" result="BackgroundImageFix"/>
<feBlend mode="normal" in="SourceGraphic" in2="BackgroundImageFix" result="shape"/>
<feColorMatrix in="SourceAlpha" type="matrix" values="0 0 0 0 0 0 0 0 0 0 0 0 0 0 0 0 0 0 127 0" result="hardAlpha"/>
<feOffset dy="4"/>
<feGaussianBlur stdDeviation="2"/>
<feComposite in2="hardAlpha" operator="arithmetic" k2="-1" k3="1"/>
<feColorMatrix type="matrix" values="0 0 0 0 0 0 0 0 0 0 0 0 0 0 0 0 0 0 0.25 0"/>
<feBlend mode="normal" in2="shape" result="effect1_innerShadow_246_28"/>
</filter>
<filter id="filter2_di_246_28" x="8" y="15" width="214" height="214" filterUnits="userSpaceOnUse" color-interpolation-filters="sRGB">
<feFlood flood-opacity="0" result="BackgroundImageFix"/>
<feColorMatrix in="SourceAlpha" type="matrix" values="0 0 0 0 0 0 0 0 0 0 0 0 0 0 0 0 0 0 127 0" result="hardAlpha"/>
<feOffset dy="4"/>
<feGaussianBlur stdDeviation="2"/>
<feComposite in2="hardAlpha" operator="out"/>
<feColorMatrix type="matrix" values="0 0 0 0 0 0 0 0 0 0 0 0 0 0 0 0 0 0 0.25 0"/>
<feBlend mode="normal" in2="BackgroundImageFix" result="effect1_dropShadow_246_28"/>
<feBlend mode="normal" in="SourceGraphic" in2="effect1_dropShadow_246_28" result="shape"/>
<feColorMatrix in="SourceAlpha" type="matrix" values="0 0 0 0 0 0 0 0 0 0 0 0 0 0 0 0 0 0 127 0" result="hardAlpha"/>
<feOffset dy="4"/>
<feGaussianBlur stdDeviation="2"/>
<feComposite in2="hardAlpha" operator="arithmetic" k2="-1" k3="1"/>
<feColorMatrix type="matrix" values="0 0 0 0 0 0 0 0 0 0 0 0 0 0 0 0 0 0 0.25 0"/>
<feBlend mode="normal" in2="shape" result="effect2_innerShadow_246_28"/>
</filter>
<filter id="filter3_ii_246_28" x="44" y="30" width="143" height="179" filterUnits="userSpaceOnUse" color-interpolation-filters="sRGB">
<feFlood flood-opacity="0" result="BackgroundImageFix"/>
<feBlend mode="normal" in="SourceGraphic" in2="BackgroundImageFix" result="shape"/>
<feColorMatrix in="SourceAlpha" type="matrix" values="0 0 0 0 0 0 0 0 0 0 0 0 0 0 0 0 0 0 127 0" result="hardAlpha"/>
<feOffset dy="4"/>
<feGaussianBlur stdDeviation="2"/>
<feComposite in2="hardAlpha" operator="arithmetic" k2="-1" k3="1"/>
<feColorMatrix type="matrix" values="0 0 0 0 0 0 0 0 0 0 0 0 0 0 0 0 0 0 0.25 0"/>
<feBlend mode="normal" in2="shape" result="effect1_innerShadow_246_28"/>
<feColorMatrix in="SourceAlpha" type="matrix" values="0 0 0 0 0 0 0 0 0 0 0 0 0 0 0 0 0 0 127 0" result="hardAlpha"/>
<feOffset dy="4"/>
<feGaussianBlur stdDeviation="2"/>
<feComposite in2="hardAlpha" operator="arithmetic" k2="-1" k3="1"/>
<feColorMatrix type="matrix" values="0 0 0 0 0 0 0 0 0 0 0 0 0 0 0 0 0 0 0.25 0"/>
<feBlend mode="normal" in2="effect1_innerShadow_246_28" result="effect2_innerShadow_246_28"/>
</filter>
<linearGradient id="paint0_linear_246_28" x1="115.5" y1="30" x2="115.5" y2="205" gradientUnits="userSpaceOnUse">
<stop stop-color="#666BEF"/>
<stop offset="1" stop-color="#1914B0"/>
</linearGradient>
</defs>
</svg>
