<svg width="553" height="214" viewBox="0 0 553 214" fill="none" xmlns="http://www.w3.org/2000/svg">
<g filter="url(#filter0_i_253_13)">
<path d="M223.405 76.3152C223.405 71.8952 224.423 67.9302 226.46 64.4202C228.54 60.9102 231.335 58.1802 234.845 56.2302C238.398 54.2369 242.277 53.2402 246.48 53.2402C251.29 53.2402 255.558 54.4319 259.285 56.8152C263.055 59.1552 265.785 62.4919 267.475 66.8252H258.57C257.4 64.4419 255.775 62.6652 253.695 61.4952C251.615 60.3252 249.21 59.7402 246.48 59.7402C243.49 59.7402 240.825 60.4119 238.485 61.7552C236.145 63.0985 234.303 65.0269 232.96 67.5402C231.66 70.0535 231.01 72.9785 231.01 76.3152C231.01 79.6519 231.66 82.5769 232.96 85.0902C234.303 87.6032 236.145 89.5532 238.485 90.9402C240.825 92.2832 243.49 92.9552 246.48 92.9552C249.21 92.9552 251.615 92.3702 253.695 91.2002C255.775 90.0302 257.4 88.2532 258.57 85.8702H267.475C265.785 90.2032 263.055 93.5402 259.285 95.8802C255.558 98.2202 251.29 99.3902 246.48 99.3902C242.233 99.3902 238.355 98.4152 234.845 96.4652C231.335 94.4722 228.54 91.7202 226.46 88.2102C224.423 84.7002 223.405 80.7352 223.405 76.3152ZM299.613 99.0002L289.213 80.9302H283.558V99.0002H276.148V53.8252H291.748C295.215 53.8252 298.14 54.4319 300.523 55.6452C302.95 56.8585 304.748 58.4835 305.918 60.5202C307.132 62.5569 307.738 64.8319 307.738 67.3452C307.738 70.2919 306.872 72.9785 305.138 75.4052C303.448 77.7885 300.827 79.4135 297.273 80.2802L308.453 99.0002H299.613ZM283.558 75.0152H291.748C294.522 75.0152 296.602 74.3219 297.988 72.9352C299.418 71.5485 300.133 69.6852 300.133 67.3452C300.133 65.0052 299.44 63.1852 298.053 61.8852C296.667 60.5419 294.565 59.8702 291.748 59.8702H283.558V75.0152ZM337.823 99.4552C333.619 99.4552 329.741 98.4802 326.188 96.5302C322.678 94.5372 319.883 91.7852 317.803 88.2752C315.766 84.7219 314.748 80.7352 314.748 76.3152C314.748 71.8952 315.766 67.9302 317.803 64.4202C319.883 60.9102 322.678 58.1802 326.188 56.2302C329.741 54.2369 333.619 53.2402 337.823 53.2402C342.069 53.2402 345.948 54.2369 349.458 56.2302C353.011 58.1802 355.806 60.9102 357.843 64.4202C359.879 67.9302 360.898 71.8952 360.898 76.3152C360.898 80.7352 359.879 84.7219 357.843 88.2752C355.806 91.7852 353.011 94.5372 349.458 96.5302C345.948 98.4802 342.069 99.4552 337.823 99.4552ZM337.823 93.0202C340.813 93.0202 343.478 92.3482 345.818 91.0052C348.158 89.6182 349.978 87.6682 351.278 85.1552C352.621 82.5985 353.293 79.6519 353.293 76.3152C353.293 72.9785 352.621 70.0535 351.278 67.5402C349.978 65.0269 348.158 63.0985 345.818 61.7552C343.478 60.4119 340.813 59.7402 337.823 59.7402C334.833 59.7402 332.168 60.4119 329.828 61.7552C327.488 63.0985 325.646 65.0269 324.303 67.5402C323.003 70.0535 322.353 72.9785 322.353 76.3152C322.353 79.6519 323.003 82.5985 324.303 85.1552C325.646 87.6682 327.488 89.6182 329.828 91.0052C332.168 92.3482 334.833 93.0202 337.823 93.0202ZM427.014 53.8252L413.624 99.0002H405.239L395.749 64.8102L385.674 99.0002L377.354 99.0652L364.549 53.8252H372.414L381.774 90.6152L391.914 53.8252H400.234L409.659 90.4202L419.084 53.8252H427.014ZM470.241 99.0002H462.831L440.536 65.2652V99.0002H433.126V53.7602H440.536L462.831 87.4302V53.7602H470.241V99.0002ZM487.382 59.8052V73.0652H502.982V79.1102H487.382V92.9552H504.932V99.0002H479.972V53.7602H504.932V59.8052H487.382ZM528.814 53.8252C533.624 53.8252 537.827 54.7569 541.424 56.6202C545.064 58.4402 547.859 61.0835 549.809 64.5502C551.802 67.9735 552.799 71.9819 552.799 76.5752C552.799 81.1685 551.802 85.1552 549.809 88.5352C547.859 91.9152 545.064 94.5152 541.424 96.3352C537.827 98.1122 533.624 99.0002 528.814 99.0002H514.059V53.8252H528.814ZM528.814 92.9552C534.1 92.9552 538.152 91.5252 540.969 88.6652C543.785 85.8052 545.194 81.7752 545.194 76.5752C545.194 71.3319 543.785 67.2369 540.969 64.2902C538.152 61.3435 534.1 59.8702 528.814 59.8702H521.469V92.9552H528.814Z" fill="black"/>
</g>
<g filter="url(#filter1_di_253_13)">
<path d="M107 206C163.885 206 210 159.885 210 103C210 46.1147 163.885 0 107 0C50.1147 0 4 46.1147 4 103C4 159.885 50.1147 206 107 206Z" fill="white"/>
</g>
<g filter="url(#filter2_ii_253_13)">
<path d="M58.88 112.541L36 89.59L110.36 15L179 86.721L144.68 121.148L110.36 155.574L84.62 129.754L127.52 86.721L110.36 69.5082L63.17 116.844L64.6 118.279L107.5 75.2459L121.077 86.721L78.9 129.754L110.36 161.311L161.84 109.672L179 124.016L176.14 126.885L110.36 190L50.3 129.754L63.17 116.844L58.88 112.541Z" fill="url(#paint0_linear_253_13)"/>
</g>
<path d="M223.405 148.315C223.405 143.895 224.423 139.93 226.46 136.42C228.54 132.91 231.335 130.18 234.845 128.23C238.398 126.237 242.277 125.24 246.48 125.24C251.29 125.24 255.558 126.432 259.285 128.815C263.055 131.155 265.785 134.492 267.475 138.825H258.57C257.4 136.442 255.775 134.665 253.695 133.495C251.615 132.325 249.21 131.74 246.48 131.74C243.49 131.74 240.825 132.412 238.485 133.755C236.145 135.098 234.303 137.027 232.96 139.54C231.66 142.053 231.01 144.978 231.01 148.315C231.01 151.652 231.66 154.577 232.96 157.09C234.303 159.603 236.145 161.553 238.485 162.94C240.825 164.283 243.49 164.955 246.48 164.955C249.21 164.955 251.615 164.37 253.695 163.2C255.775 162.03 257.4 160.253 258.57 157.87H267.475C265.785 162.203 263.055 165.54 259.285 167.88C255.558 170.22 251.29 171.39 246.48 171.39C242.233 171.39 238.355 170.415 234.845 168.465C231.335 166.472 228.54 163.72 226.46 160.21C224.423 156.7 223.405 152.735 223.405 148.315ZM296.753 171.455C292.55 171.455 288.672 170.48 285.118 168.53C281.608 166.537 278.813 163.785 276.733 160.275C274.697 156.722 273.678 152.735 273.678 148.315C273.678 143.895 274.697 139.93 276.733 136.42C278.813 132.91 281.608 130.18 285.118 128.23C288.672 126.237 292.55 125.24 296.753 125.24C301 125.24 304.878 126.237 308.388 128.23C311.942 130.18 314.737 132.91 316.773 136.42C318.81 139.93 319.828 143.895 319.828 148.315C319.828 152.735 318.81 156.722 316.773 160.275C314.737 163.785 311.942 166.537 308.388 168.53C304.878 170.48 301 171.455 296.753 171.455ZM296.753 165.02C299.743 165.02 302.408 164.348 304.748 163.005C307.088 161.618 308.908 159.668 310.208 157.155C311.552 154.598 312.223 151.652 312.223 148.315C312.223 144.978 311.552 142.053 310.208 139.54C308.908 137.027 307.088 135.098 304.748 133.755C302.408 132.412 299.743 131.74 296.753 131.74C293.763 131.74 291.098 132.412 288.758 133.755C286.418 135.098 284.577 137.027 283.233 139.54C281.933 142.053 281.283 144.978 281.283 148.315C281.283 151.652 281.933 154.598 283.233 157.155C284.577 159.668 286.418 161.618 288.758 163.005C291.098 164.348 293.763 165.02 296.753 165.02ZM364.235 171H356.825L334.53 137.265V171H327.12V125.76H334.53L356.825 159.43V125.76H364.235V171ZM371.496 148.315C371.496 143.895 372.514 139.93 374.551 136.42C376.631 132.91 379.426 130.18 382.936 128.23C386.489 126.237 390.367 125.24 394.571 125.24C399.381 125.24 403.649 126.432 407.376 128.815C411.146 131.155 413.876 134.492 415.566 138.825H406.661C405.491 136.442 403.866 134.665 401.786 133.495C399.706 132.325 397.301 131.74 394.571 131.74C391.581 131.74 388.916 132.412 386.576 133.755C384.236 135.098 382.394 137.027 381.051 139.54C379.751 142.053 379.101 144.978 379.101 148.315C379.101 151.652 379.751 154.577 381.051 157.09C382.394 159.603 384.236 161.553 386.576 162.94C388.916 164.283 391.581 164.955 394.571 164.955C397.301 164.955 399.706 164.37 401.786 163.2C403.866 162.03 405.491 160.253 406.661 157.87H415.566C413.876 162.203 411.146 165.54 407.376 167.88C403.649 170.22 399.381 171.39 394.571 171.39C390.324 171.39 386.446 170.415 382.936 168.465C379.426 166.472 376.631 163.72 374.551 160.21C372.514 156.7 371.496 152.735 371.496 148.315ZM431.649 131.805V145.065H447.249V151.11H431.649V164.955H449.199V171H424.239V125.76H449.199V131.805H431.649ZM489.916 139.28C489.916 141.577 489.375 143.743 488.291 145.78C487.208 147.817 485.475 149.485 483.091 150.785C480.708 152.042 477.653 152.67 473.926 152.67H465.736V171H458.326V125.825H473.926C477.393 125.825 480.318 126.432 482.701 127.645C485.128 128.815 486.926 130.418 488.096 132.455C489.31 134.492 489.916 136.767 489.916 139.28ZM473.926 146.625C476.743 146.625 478.845 145.997 480.231 144.74C481.618 143.44 482.311 141.62 482.311 139.28C482.311 134.34 479.516 131.87 473.926 131.87H465.736V146.625H473.926ZM526.168 125.825V131.87H514.143V171H506.733V131.87H494.643V125.825H526.168Z" fill="black"/>
<defs>
<filter id="filter0_i_253_13" x="223.405" y="53.2402" width="329.394" height="50.2148" filterUnits="userSpaceOnUse" color-interpolation-filters="sRGB">
<feFlood flood-opacity="0" result="BackgroundImageFix"/>
<feBlend mode="normal" in="SourceGraphic" in2="BackgroundImageFix" result="shape"/>
<feColorMatrix in="SourceAlpha" type="matrix" values="0 0 0 0 0 0 0 0 0 0 0 0 0 0 0 0 0 0 127 0" result="hardAlpha"/>
<feOffset dy="4"/>
<feGaussianBlur stdDeviation="2"/>
<feComposite in2="hardAlpha" operator="arithmetic" k2="-1" k3="1"/>
<feColorMatrix type="matrix" values="0 0 0 0 0 0 0 0 0 0 0 0 0 0 0 0 0 0 0.25 0"/>
<feBlend mode="normal" in2="shape" result="effect1_innerShadow_253_13"/>
</filter>
<filter id="filter1_di_253_13" x="0" y="0" width="214" height="214" filterUnits="userSpaceOnUse" color-interpolation-filters="sRGB">
<feFlood flood-opacity="0" result="BackgroundImageFix"/>
<feColorMatrix in="SourceAlpha" type="matrix" values="0 0 0 0 0 0 0 0 0 0 0 0 0 0 0 0 0 0 127 0" result="hardAlpha"/>
<feOffset dy="4"/>
<feGaussianBlur stdDeviation="2"/>
<feComposite in2="hardAlpha" operator="out"/>
<feColorMatrix type="matrix" values="0 0 0 0 0 0 0 0 0 0 0 0 0 0 0 0 0 0 0.25 0"/>
<feBlend mode="normal" in2="BackgroundImageFix" result="effect1_dropShadow_253_13"/>
<feBlend mode="normal" in="SourceGraphic" in2="effect1_dropShadow_253_13" result="shape"/>
<feColorMatrix in="SourceAlpha" type="matrix" values="0 0 0 0 0 0 0 0 0 0 0 0 0 0 0 0 0 0 127 0" result="hardAlpha"/>
<feOffset dy="4"/>
<feGaussianBlur stdDeviation="2"/>
<feComposite in2="hardAlpha" operator="arithmetic" k2="-1" k3="1"/>
<feColorMatrix type="matrix" values="0 0 0 0 0 0 0 0 0 0 0 0 0 0 0 0 0 0 0.25 0"/>
<feBlend mode="normal" in2="shape" result="effect2_innerShadow_253_13"/>
</filter>
<filter id="filter2_ii_253_13" x="36" y="15" width="143" height="179" filterUnits="userSpaceOnUse" color-interpolation-filters="sRGB">
<feFlood flood-opacity="0" result="BackgroundImageFix"/>
<feBlend mode="normal" in="SourceGraphic" in2="BackgroundImageFix" result="shape"/>
<feColorMatrix in="SourceAlpha" type="matrix" values="0 0 0 0 0 0 0 0 0 0 0 0 0 0 0 0 0 0 127 0" result="hardAlpha"/>
<feOffset dy="4"/>
<feGaussianBlur stdDeviation="2"/>
<feComposite in2="hardAlpha" operator="arithmetic" k2="-1" k3="1"/>
<feColorMatrix type="matrix" values="0 0 0 0 0 0 0 0 0 0 0 0 0 0 0 0 0 0 0.25 0"/>
<feBlend mode="normal" in2="shape" result="effect1_innerShadow_253_13"/>
<feColorMatrix in="SourceAlpha" type="matrix" values="0 0 0 0 0 0 0 0 0 0 0 0 0 0 0 0 0 0 127 0" result="hardAlpha"/>
<feOffset dy="4"/>
<feGaussianBlur stdDeviation="2"/>
<feComposite in2="hardAlpha" operator="arithmetic" k2="-1" k3="1"/>
<feColorMatrix type="matrix" values="0 0 0 0 0 0 0 0 0 0 0 0 0 0 0 0 0 0 0.25 0"/>
<feBlend mode="normal" in2="effect1_innerShadow_253_13" result="effect2_innerShadow_253_13"/>
</filter>
<linearGradient id="paint0_linear_253_13" x1="107.5" y1="15" x2="107.5" y2="190" gradientUnits="userSpaceOnUse">
<stop stop-color="#666BEF"/>
<stop offset="1" stop-color="#1914B0"/>
</linearGradient>
</defs>
</svg>
